<svg xmlns="http://www.w3.org/2000/svg" viewBox="0 0 72 72" fill="none">
  <defs>
    <linearGradient id="markGradient" x1="9" x2="61" y1="8" y2="64" gradientUnits="userSpaceOnUse">
      <stop stop-color="#ff6b6b"/>
      <stop offset=".48" stop-color="#ffd166"/>
      <stop offset="1" stop-color="#4fd1b6"/>
    </linearGradient>
  </defs>
  <rect x="5" y="5" width="62" height="62" rx="19" fill="#101619"/>
  <rect x="5.5" y="5.5" width="61" height="61" rx="18.5" stroke="white" stroke-opacity=".13"/>
  <path d="M22 20.8c0-2.9 3.1-4.8 5.7-3.4l30 15.7c2.8 1.5 2.8 5.5 0 7l-30 15.7c-2.6 1.4-5.7-.5-5.7-3.4V20.8Z" fill="url(#markGradient)"/>
  <path d="M31.5 29.3c0-1.2 1.3-2 2.4-1.4l12.2 6.4c1.1.6 1.1 2.2 0 2.8l-12.2 6.4c-1.1.6-2.4-.2-2.4-1.4V29.3Z" fill="#101619"/>
  <path d="M15 24.5h9M15 36h15M15 47.5h9" stroke="#4fd1b6" stroke-width="3" stroke-linecap="round"/>
</svg>
