<svg xmlns="http://www.w3.org/2000/svg" viewBox="0 0 64 64">
  <defs>
    <linearGradient id="g" x1="10" x2="54" y1="8" y2="56" gradientUnits="userSpaceOnUse">
      <stop stop-color="#ff6b6b"/>
      <stop offset=".55" stop-color="#ffd166"/>
      <stop offset="1" stop-color="#4fd1b6"/>
    </linearGradient>
    <filter id="s" x="-20%" y="-20%" width="140%" height="140%">
      <feDropShadow dx="0" dy="6" stdDeviation="6" flood-color="#000" flood-opacity=".28"/>
    </filter>
  </defs>
  <rect width="64" height="64" rx="18" fill="#101619"/>
  <path fill="url(#g)" filter="url(#s)" d="M17 18.5c0-2.5 2.6-4.1 4.8-3l27.4 13.5c2.5 1.2 2.5 4.8 0 6L21.8 48.5c-2.2 1.1-4.8-.5-4.8-3z"/>
  <path fill="#101619" d="M27 25.4c0-1.2 1.3-2 2.4-1.4l13.2 6.5c1.2.6 1.2 2.4 0 3L29.4 40c-1.1.5-2.4-.2-2.4-1.4z"/>
  <circle cx="21.5" cy="20" r="3" fill="#fff7e1" opacity=".9"/>
</svg>
